<svg width="160" height="160" viewBox="0 0 160 160" fill="none" xmlns="http://www.w3.org/2000/svg">
<g opacity="0.7" clip-path="url(#clip0)">
<g opacity="0.5">
<path fill-rule="evenodd" clip-rule="evenodd" d="M159.495 71.117C159.242 68.8679 156.62 67.1778 154.352 67.1778C147.021 67.1778 140.515 62.8731 137.787 56.2157C135 49.3969 136.797 41.4447 142.261 36.4328C143.981 34.8605 144.19 32.2286 142.747 30.4004C138.995 25.6355 134.73 21.3314 130.074 17.6011C128.25 16.1379 125.575 16.3414 123.994 18.0923C119.225 23.3733 110.66 25.3361 104.041 22.5744C97.1532 19.677 92.8098 12.6975 93.2349 5.20548C93.3748 2.85219 91.6549 0.806093 89.3088 0.532843C83.333 -0.158318 77.3048 -0.17975 71.3112 0.485218C68.9918 0.741204 67.272 2.73908 67.35 5.0626C67.6107 12.4808 63.2149 19.3383 56.3956 22.1315C49.856 24.8027 41.3507 22.8566 36.5918 17.6226C35.019 15.8985 32.3871 15.6866 30.5547 17.1148C25.76 20.8766 21.3993 25.1843 17.6125 29.9099C16.1356 31.747 16.3528 34.4099 18.09 35.9904C23.658 41.0328 25.4558 49.054 22.5632 55.9514C19.8015 62.5272 12.9732 66.7653 5.15615 66.7653C2.61951 66.6837 0.81273 68.3863 0.535313 70.6926C-0.16835 76.7029 -0.176684 82.8269 0.500785 88.886C0.752008 91.1446 3.45415 92.8199 5.74671 92.8199C12.7131 92.6419 19.4015 96.9549 22.2072 103.783C25.004 110.601 23.2061 118.549 17.734 123.565C16.0224 125.137 15.8052 127.765 17.2476 129.593C20.9648 134.328 25.2302 138.636 29.9034 142.397C31.7364 143.874 34.4034 143.666 35.9923 141.915C40.7786 136.621 49.3434 134.662 55.936 137.429C62.841 140.317 67.1845 147.296 66.7594 154.792C66.6207 157.147 68.3489 159.196 70.6855 159.465C73.7425 159.822 76.8179 160 79.9016 160C82.8288 160 85.7565 159.839 88.6837 159.514C91.0036 159.258 92.7223 157.26 92.6443 154.932C92.3758 147.518 96.7794 140.661 103.59 137.872C110.173 135.183 118.643 137.151 123.402 142.38C124.984 144.1 127.598 144.308 129.44 142.885C134.226 139.132 138.578 134.828 142.382 130.089C143.859 128.256 143.65 125.589 141.904 124.009C136.336 118.967 134.53 110.944 137.422 104.052C140.142 97.5633 146.716 93.2068 153.788 93.2068L154.777 93.2324C157.071 93.4187 159.182 91.6519 159.46 89.3105C160.164 83.2948 160.173 77.1762 159.495 71.117Z" fill="url(#paint0_linear)" fill-opacity="0.23"/>
</g>
<g clip-path="url(#clip1)">
<path d="M112.654 97.3439C112.654 106.384 105.325 113.713 96.2848 113.713C87.2443 113.713 79.9155 106.384 79.9155 97.3439C79.9155 88.3035 87.2443 80.9747 96.2848 80.9747C105.325 80.9747 112.654 88.3035 112.654 97.3439Z" fill="#90C5B5"/>
<path d="M72.9001 54.0823H84.5925V56.4208H72.9001V54.0823Z" fill="#878B9B"/>
<path d="M62.377 76.2977H71.7308V78.6362H62.377V76.2977Z" fill="#878B9B"/>
<path d="M74.0693 76.2977H90.4386V78.6362H74.0693V76.2977Z" fill="#878B9B"/>
<path d="M62.377 82.1439H81.0846V84.4823H62.377V82.1439Z" fill="#878B9B"/>
<path d="M86.9309 89.1593H105.639V91.4978H86.9309V89.1593Z" fill="#8E6A65"/>
<path d="M62.377 87.9901H68.2231V90.3285H62.377V87.9901Z" fill="#878B9B"/>
<path d="M70.5615 87.9901H77.5769V90.3285H70.5615V87.9901Z" fill="#878B9B"/>
<path d="M72.9001 93.8362H76.4078V96.1747H72.9001V93.8362Z" fill="#878B9B"/>
<path d="M62.377 99.6823H65.8846V102.021H62.377V99.6823Z" fill="#878B9B"/>
<path d="M62.377 93.8362H70.5616V96.1747H62.377V93.8362Z" fill="#878B9B"/>
<path d="M68.2231 99.6823H76.4078V102.021H68.2231V99.6823Z" fill="#878B9B"/>
<path d="M74.0693 63.4362L69.3923 68.1131V72.7901H78.7462V68.1131L74.0693 63.4362Z" fill="#2AB793"/>
<path d="M78.7463 59.9285H88.1002V72.79H78.7463V59.9285Z" fill="#5FA690"/>
<path d="M82.2539 63.4362H84.5924V65.7747H82.2539V63.4362Z" fill="#E9E9E9"/>
<path d="M72.9001 68.1131H75.2386V72.79H72.9001V68.1131Z" fill="#E9E9E9"/>
<path d="M82.2539 68.1131H84.5924V70.4516H82.2539V68.1131Z" fill="#E9E9E9"/>
<path d="M90.4385 87.9901H92.7769V92.667H90.4385V87.9901Z" fill="#5B4349"/>
<path d="M86.9309 96.1747H105.639V98.5131H86.9309V96.1747Z" fill="#8E6A65"/>
<path d="M95.1155 95.0054H97.4539V99.6824H95.1155V95.0054Z" fill="#5B4349"/>
<path d="M86.9309 103.19H105.639V105.529H86.9309V103.19Z" fill="#8E6A65"/>
<path d="M99.7925 102.021H102.131V106.698H99.7925V102.021Z" fill="#5B4349"/>
<path d="M67.054 71.6208H90.4386V73.9593H67.054V71.6208Z" fill="#239172"/>
<path d="M96.2848 79.8055C86.5804 79.8055 78.7463 87.6395 78.7463 97.3439C78.7463 107.048 86.5804 114.882 96.2848 114.882C105.989 114.882 113.823 107.048 113.823 97.3439C113.823 87.6395 105.989 79.8055 96.2848 79.8055ZM96.2848 112.544C87.8661 112.544 81.0848 105.763 81.0848 97.3439C81.0848 88.9252 87.8661 82.1439 96.2848 82.1439C104.703 82.1439 111.485 88.9252 111.485 97.3439C111.485 105.763 104.703 112.544 96.2848 112.544Z" fill="black"/>
<path d="M100.962 77.467V48.2362C100.962 46.2483 99.4418 44.7285 97.4538 44.7285H60.0385C58.0505 44.7285 56.5308 46.2483 56.5308 48.2362V111.375C56.5308 113.363 58.0505 114.882 60.0385 114.882H83.4231V112.544H60.0385C59.3368 112.544 58.8692 112.076 58.8692 111.375V107.867H77.5769V105.529H58.8692V51.7439H98.6231V77.467H100.962ZM58.8692 49.4054V48.2362C58.8692 47.5346 59.3368 47.067 60.0385 47.067H97.4538C98.1555 47.067 98.6231 47.5346 98.6231 48.2362V49.4054H58.8692Z" fill="black"/>
<path d="M72.9001 54.0823H84.5925V56.4208H72.9001V54.0823Z" fill="black"/>
<path d="M62.377 76.2977H71.7308V78.6362H62.377V76.2977Z" fill="black"/>
<path d="M74.0693 76.2977H90.4386V78.6362H74.0693V76.2977Z" fill="black"/>
<path d="M62.377 82.1439H81.0846V84.4823H62.377V82.1439Z" fill="black"/>
<path d="M62.377 87.9901H68.2231V90.3285H62.377V87.9901Z" fill="black"/>
<path d="M70.5615 87.9901H77.5769V90.3285H70.5615V87.9901Z" fill="black"/>
<path d="M72.9001 93.8362H76.4078V96.1747H72.9001V93.8362Z" fill="black"/>
<path d="M62.377 99.6823H65.8846V102.021H62.377V99.6823Z" fill="black"/>
<path d="M62.377 93.8362H70.5616V96.1747H62.377V93.8362Z" fill="black"/>
<path d="M68.2231 99.6823H76.4078V102.021H68.2231V99.6823Z" fill="black"/>
<path d="M82.2539 63.4362H84.5924V65.7747H82.2539V63.4362Z" fill="black"/>
<path d="M90.4386 71.6208H89.2693V58.7593H77.577V65.3071L74.0693 61.7994L68.2232 67.6455V71.6208H67.054V73.9593H90.4386V71.6208ZM79.9155 61.0977H86.9309V71.6208H79.9155V61.0977ZM70.5616 68.5807L74.0693 65.073L77.577 68.5807V71.6208H75.2386V68.1131H72.9001V71.6208H70.5616V68.5807Z" fill="black"/>
<path d="M82.2539 68.1131H84.5924V70.4516H82.2539V68.1131Z" fill="black"/>
<path d="M92.7771 87.9901H90.4386V89.1593H86.9309V91.4977H90.4386V92.667H92.7771V91.4977H105.639V89.1593H92.7771V87.9901Z" fill="black"/>
<path d="M97.454 95.0054H95.1155V96.1747H86.9309V98.5131H95.1155V99.6824H97.454V98.5131H105.639V96.1747H97.454V95.0054Z" fill="black"/>
<path d="M102.131 102.021H99.7924V103.19H86.9309V105.529H99.7924V106.698H102.131V105.529H105.639V103.19H102.131V102.021Z" fill="black"/>
</g>
</g>
<defs>
<linearGradient id="paint0_linear" x1="142.207" y1="136.944" x2="16.2213" y2="9.99721" gradientUnits="userSpaceOnUse">
<stop stop-color="#87B827"/>
<stop offset="1" stop-color="#3A7D11"/>
</linearGradient>
<clipPath id="clip0">
<rect width="160" height="160" fill="white"/>
</clipPath>
<clipPath id="clip1">
<rect width="70.1538" height="70.1538" fill="white" transform="translate(50.1001 44.7285)"/>
</clipPath>
</defs>
</svg>
