<svg width="192" height="61" viewBox="0 0 192 61" fill="none" xmlns="http://www.w3.org/2000/svg">
<path d="M8.31188 59.4946H0.992432V1.14043L8.31188 1.73257V59.4946Z" fill="#757575"/>
<path d="M20.2941 59.4946H12.9746V17.8766L20.2941 18.3948V59.4946ZM16.6343 5.21317C18.9364 5.21317 20.8253 7.58294 20.8253 10.471C20.8253 13.3594 18.9364 15.7292 16.6343 15.7292C14.3322 15.7292 12.4434 13.3594 12.4434 10.471C12.4434 7.58294 14.3322 5.21317 16.6343 5.21317Z" fill="#757575"/>
<path d="M37.7664 26.2444V35.427H32.2768V59.4546H24.9573V13.8035C24.9573 6.8427 29.5614 0.54792 34.992 0.54792C36.8218 0.54792 38.2976 1.21473 38.6519 1.5106L38.3565 10.3229H34.992C33.5162 10.3229 32.2768 11.8781 32.2768 13.8035V26.2444H37.7664Z" fill="#757575"/>
<path d="M48.0467 34.2422H53.5363V29.9475C53.5363 28.0218 52.2966 26.4668 50.8208 26.4668C49.286 26.4668 48.0467 28.0218 48.0467 29.9475V34.2422ZM40.7271 29.9475C40.7271 22.986 45.2131 17.2842 50.8208 17.2842C56.3695 17.2842 60.8556 22.986 60.8556 29.9475V38.834C60.8556 41.4256 59.2028 43.4248 57.1961 43.4248H48.0467V47.424C48.0467 49.3489 49.286 50.9045 50.8208 50.9045H57.8454L58.0815 58.6803L51.4704 59.9389C45.095 61.272 40.7271 54.3848 40.7271 47.424V29.9475Z" fill="#757575"/>
<path d="M67.1147 59.4946V1.51064H71.8373V19.1352C73.1358 18.6169 75.2017 18.3949 76.6184 18.3949C81.636 18.3949 85.5316 24.0969 85.5316 30.5398V59.4946H80.9275V30.5398C80.9275 27.3553 78.8616 24.8375 76.3233 24.8375H71.8373V59.4946H67.1147Z" fill="#757575"/>
<path d="M102.808 48.3126V38.3152H98.2623C95.7243 38.3152 93.7173 40.8333 93.7173 44.0171V48.3126C93.7173 51.4965 95.7243 54.0883 98.2623 54.0883C100.801 54.0883 102.808 51.4965 102.808 48.3126ZM102.808 29.5769C102.808 26.2444 101.568 23.5784 98.2034 24.0231H98.2623C96.3733 24.097 93.9535 24.3932 91.9465 24.5412C91.8876 22.3936 91.8284 21.5791 91.7695 19.9501C93.3631 19.2094 95.6651 18.4688 97.6133 18.3949C103.516 18.2468 107.412 24.2452 107.412 30.6875V48.3126C107.412 54.6808 103.339 59.9387 98.2623 59.9387C93.1861 59.9387 88.9951 54.6808 88.9951 48.3126V44.6839C88.9951 38.3152 92.4776 33.5019 98.2623 33.5019C100.447 33.5019 101.568 33.7981 102.808 34.2421V29.5769Z" fill="#757575"/>
<path d="M120.636 18.3949C125.713 18.3949 129.904 23.5784 129.904 30.0212V30.7619C128.074 30.836 126.598 30.836 125.241 30.9099V30.0212C125.241 26.9111 123.175 24.3193 120.636 24.3193C118.157 24.3193 116.15 26.9111 116.15 30.0212V48.5347C116.15 51.7929 118.157 54.2369 120.636 54.2369C123.116 54.2369 125.182 51.8671 125.241 48.7566C127.543 48.9791 129.727 49.1272 129.904 49.1272C129.668 55.2735 125.536 60.1611 120.636 60.1611C115.56 60.1611 111.428 54.9772 111.428 48.5347V30.0212C111.428 23.5784 115.56 18.3949 120.636 18.3949Z" fill="#757575"/>
<path d="M148.509 59.4946L139.537 39.8701C138.651 37.9451 138.651 37.7227 139.714 35.427L147.623 18.9874H152.995L144.081 37.9451L153.703 59.4946H148.509ZM138.356 1.65871V59.4946H133.634V1.65871H138.356Z" fill="#757575"/>
<path d="M159.42 36.3158H168.511V30.0951C168.511 26.9111 166.444 24.3194 163.965 24.3194C161.427 24.3194 159.42 26.9111 159.42 30.0951V36.3158ZM154.698 30.0951C154.698 23.6528 158.83 18.395 163.965 18.395C169.041 18.395 173.174 23.6528 173.174 30.0951V39.204C173.174 40.9075 172.111 42.1662 170.813 42.1662H159.42V48.4605C159.42 51.6448 161.427 54.237 163.965 54.237H169.927C169.986 56.1619 170.045 57.4957 170.163 58.828L164.496 59.9389C158.712 61.1978 154.698 54.9035 154.698 48.4605V30.0951Z" fill="#757575"/>
<path d="M182.038 59.4946H177.316V30.6136C177.316 24.1707 181.33 18.1728 187.232 18.3205C189.239 18.3948 190.479 18.9873 191.837 19.8019C191.778 21.579 191.719 23.0602 191.66 24.3931L186.524 24.2451C184.045 24.2451 182.038 27.5776 182.038 30.6136V59.4946Z" fill="#757575"/>
</svg>
