<svg width="175" height="80" viewBox="0 0 185 50" fill="none" xmlns="http://www.w3.org/2000/svg">
<path fill="#94B330" fill-rule="evenodd" d="M0 .45l6.9.44v43.6H0V.46zm14.75 3.07a3.98 3.98 0 0 1 0 7.94 3.98 3.98 0 0 1 0-7.94zM47 12.63c5.23 0 9.46 4.3 9.46 9.56v6.71a3.44 3.44 0 0 1-3.45 3.47h-8.63v3.02A2.62 2.62 0 0 0 47 38h6.62l.22 5.87-6.23.95c-6.01 1-10.13-4.2-10.13-9.44v-13.2A9.54 9.54 0 0 1 47 12.63zm-35.7.45l6.9.4V44.5h-6.9V13.08zM32.07 0c1.72 0 3.12.5 3.45.73l-.28 6.65h-3.17A2.6 2.6 0 0 0 29.5 10v9.39h5.17v6.93H29.5v18.14h-6.9V10c0-5.25 4.34-10 9.46-10zm68.3 22.75v13.3a8.72 8.72 0 0 1-8.63 8.78A8.81 8.81 0 0 1 83 36.06v-2.74c0-4.81 3.29-8.44 8.74-8.44 2.06 0 3.12.22 4.29.55v-3.52c0-2.51-1.17-4.53-4.34-4.19h.05c-1.78.06-4.06.28-5.95.4-.06-1.63-.12-2.24-.17-3.47 1.5-.56 3.67-1.12 5.51-1.18 5.57-.11 9.24 4.42 9.24 9.28zM66.82.73v13.3a17.2 17.2 0 0 1 4.5-.56c4.74 0 8.42 4.3 8.42 9.17V44.5h-4.35V22.64a4.3 4.3 0 0 0-4.34-4.3h-4.23V44.5h-4.45V.73h4.45zM47 19.57a2.6 2.6 0 0 1 2.55 2.46v3.4h-5.17V22.2A2.62 2.62 0 0 1 47 19.57zm65.85-6.1a8.77 8.77 0 0 1 8.74 8.78v.56c-1.73.05-3.12.05-4.4.1v-.66c0-2.35-1.95-4.3-4.34-4.3a4.29 4.29 0 0 0-4.24 4.3v13.97c0 2.46 1.9 4.3 4.24 4.3a4.28 4.28 0 0 0 4.34-4.13c2.17.17 4.23.28 4.4.28a8.8 8.8 0 0 1-8.74 8.33 8.73 8.73 0 0 1-8.69-8.78V22.25c0-4.87 3.9-8.78 8.69-8.78zM129.55.84V44.5h-4.45V.84h4.46zM96.04 28.5v7.55c0 2.4-1.9 4.36-4.29 4.36a4.3 4.3 0 0 1-4.28-4.15V32.8a4.26 4.26 0 0 1 4.07-4.3h4.5zm57.68-15.04a8.77 8.77 0 0 1 8.69 8.83v6.88c0 1.29-1 2.24-2.23 2.24h-10.74v4.75a4.3 4.3 0 0 0 4.28 4.36h5.63c.05 1.45.1 2.46.22 3.46l-5.35.84c-5.45.95-9.24-3.8-9.24-8.66V22.3c0-4.86 3.9-8.83 8.74-8.83zm-10.34.45l-8.41 14.31 9.07 16.27h-4.9l-8.46-14.82c-.83-1.45-.83-1.62.17-3.35l7.46-12.41h5.07zm32.29-.5c1.89.05 3.06.5 4.34 1.11-.06 1.35-.11 2.46-.17 3.47l-4.84-.11c-2.34 0-4.23 2.51-4.23 4.8v21.8h-4.46V22.7c0-4.86 3.79-9.39 9.36-9.27zm-21.95 4.52A4.35 4.35 0 0 1 158 22.3V27h-8.57v-4.7a4.3 4.3 0 0 1 4.28-4.36z"></path>
</svg>