<svg width="10" height="10" viewBox="0 0 10 10" fill="none" xmlns="http://www.w3.org/2000/svg">
<g opacity="0.5">
<path fill-rule="evenodd" clip-rule="evenodd" d="M9.96932 4.44519C9.9535 4.30461 9.78959 4.19897 9.64785 4.19897C9.18961 4.19897 8.78297 3.9299 8.61244 3.51377C8.43822 3.08756 8.55056 2.59051 8.89207 2.27723C8.99957 2.17896 9.01263 2.01445 8.92247 1.90018C8.68794 1.60235 8.42136 1.33332 8.1303 1.10016C8.01632 1.00869 7.8491 1.02142 7.75027 1.13085C7.45222 1.46095 6.91683 1.58363 6.50313 1.41101C6.0726 1.22991 5.80111 0.793654 5.82768 0.325361C5.83643 0.178268 5.72893 0.0503756 5.58228 0.033296C5.20876 -0.00990528 4.83197 -0.0112449 4.45733 0.0303192C4.31236 0.0463197 4.20486 0.171198 4.20974 0.31643C4.22603 0.780109 3.95127 1.20874 3.52503 1.38333C3.11627 1.55029 2.58464 1.42865 2.28718 1.1015C2.18887 0.993734 2.02437 0.980487 1.90983 1.06976C1.61014 1.30489 1.33757 1.57414 1.10088 1.86952C1.00856 1.98435 1.02214 2.15079 1.13072 2.24959C1.47875 2.56476 1.59113 3.06613 1.41032 3.49725C1.2377 3.90828 0.810897 4.17318 0.322287 4.17318C0.163734 4.16808 0.0508 4.2745 0.03346 4.41866C-0.0105228 4.79433 -0.0110437 5.17712 0.0313018 5.55584C0.0470046 5.69702 0.215903 5.80173 0.3592 5.80173C0.794636 5.79061 1.2127 6.06019 1.38807 6.48696C1.56288 6.91317 1.45051 7.40993 1.10847 7.72346C1.00149 7.82174 0.987908 7.98598 1.07807 8.10026C1.31041 8.39619 1.57702 8.66548 1.86912 8.90058C1.9837 8.9929 2.1504 8.97987 2.24971 8.87044C2.54888 8.53953 3.08423 8.41707 3.4963 8.59002C3.9279 8.77056 4.19939 9.20678 4.17282 9.67534C4.16415 9.8225 4.27217 9.95062 4.41823 9.96744C4.6093 9.98973 4.80153 10.0009 4.99428 10.0009C5.17724 10.0009 5.36024 9.99081 5.54321 9.97045C5.68822 9.95445 5.79564 9.82957 5.79077 9.68408C5.77399 9.22066 6.04923 8.79204 6.47492 8.61774C6.88643 8.44966 7.41582 8.57268 7.71332 8.8995C7.81219 9.00704 7.97554 9.02002 8.09071 8.93105C8.38984 8.69648 8.66185 8.42745 8.89966 8.13125C8.99195 8.01668 8.97892 7.84998 8.86978 7.75122C8.52175 7.43605 8.40882 6.9346 8.58963 6.50378C8.7596 6.09822 9.17056 5.82592 9.61258 5.82592L9.67442 5.82752C9.81779 5.83916 9.94971 5.72872 9.96708 5.58238C10.0111 5.20636 10.0117 4.82392 9.96932 4.44519Z" fill="black" fill-opacity="0.23"/>
</g>
</svg>
