<svg width="154" height="154" viewBox="0 0 154 154" fill="none" xmlns="http://www.w3.org/2000/svg">
<g opacity="0.7" clip-path="url(#clip0)">
<g opacity="0.5">
<path fill-rule="evenodd" clip-rule="evenodd" d="M153.514 68.4501C153.271 66.2854 150.747 64.6587 148.564 64.6587C141.508 64.6587 135.246 60.5154 132.62 54.1076C129.937 47.5446 131.667 39.8905 136.926 35.0665C138.581 33.5533 138.783 31.0201 137.394 29.2604C133.783 24.6742 129.678 20.5315 125.196 16.9411C123.441 15.5327 120.866 15.7287 119.344 17.4138C114.754 22.4968 106.51 24.386 100.14 21.7279C93.51 18.9391 89.3295 12.2214 89.7386 5.01028C89.8732 2.74524 88.2178 0.77587 85.9597 0.512867C80.208 -0.152376 74.4059 -0.173003 68.637 0.467028C66.4046 0.713414 64.7493 2.63637 64.8243 4.87276C65.0753 12.0128 60.8443 18.6131 54.2807 21.3016C47.9864 23.8726 39.8001 21.9995 35.2196 16.9617C33.7058 15.3023 31.1726 15.0984 29.4089 16.473C24.794 20.0937 20.5969 24.2399 16.9521 28.7883C15.5305 30.5565 15.7396 33.1195 17.4116 34.6408C22.7708 39.494 24.5012 47.2145 21.7171 53.8532C19.059 60.1825 12.4867 64.2616 4.9628 64.2616C2.52128 64.1831 0.782253 65.8218 0.515239 68.0416C-0.162036 73.8265 -0.170058 79.7209 0.482006 85.5528C0.723808 87.7267 3.32462 89.3391 5.5312 89.3391C12.2363 89.1678 18.6739 93.3191 21.3744 99.8907C24.0663 106.454 22.3359 114.103 17.069 118.931C15.4216 120.445 15.2125 122.974 16.6008 124.733C20.1786 129.29 24.2841 133.437 28.782 137.057C30.5463 138.479 33.1133 138.278 34.6426 136.593C39.2494 131.498 47.4931 129.612 53.8384 132.275C60.4845 135.055 64.665 141.772 64.2559 148.988C64.1224 151.254 65.7858 153.227 68.0348 153.486C70.9771 153.829 73.9372 154 76.9053 154C79.7227 154 82.5407 153.845 85.3581 153.532C87.591 153.286 89.2452 151.363 89.1702 149.122C88.9117 141.986 93.1502 135.386 99.7052 132.702C106.042 130.114 114.194 132.008 118.775 137.041C120.297 138.697 122.813 138.897 124.586 137.527C129.192 133.914 133.381 129.772 137.043 125.211C138.464 123.446 138.263 120.879 136.583 119.359C131.224 114.505 129.485 106.784 132.269 100.15C134.886 93.9047 141.214 89.7116 148.021 89.7116L148.973 89.7362C151.181 89.9156 153.212 88.2149 153.48 85.9613C154.158 80.1713 154.166 74.2821 153.514 68.4501Z" fill="url(#paint0_linear)" fill-opacity="0.23"/>
</g>
<g clip-path="url(#clip1)">
<path d="M101.166 60.0628H103.18V91.2774H101.166V60.0628Z" fill="#377764"/>
<path d="M92.0031 100.138L94.1177 101.347L96.2324 100.138C102.375 96.5137 106.201 89.8679 106.201 82.7186V75.1667L94.1177 71.139L82.0347 75.1667V82.7186C82.0347 89.8679 85.8608 96.5137 92.0031 100.138Z" fill="#62AF97"/>
<path d="M93.6143 98.2251L92.6074 96.5136C98.2463 93.1905 101.166 88.0551 101.166 81.0066V79.1944H103.18V80.9063C103.18 88.7601 99.9578 94.4998 93.6143 98.2251Z" fill="#2AB793"/>
<path d="M69.9516 75.1667L66.9309 73.1529H62.9032L59.8824 71.139L52.8339 75.1667L47.7993 72.1459V77.1805L52.8339 80.2013L59.8824 76.1736L62.9032 78.1875L69.9516 75.1667Z" fill="#5FA690"/>
<path d="M81.0278 74.4617V82.7186C81.0278 90.2705 85.0555 97.2182 91.4997 100.944L94.1178 102.454L96.7359 100.944C103.18 97.2182 107.208 90.2705 107.208 82.7186V74.4617L94.1178 70.1321L81.0278 74.4617ZM105.194 82.7186C105.194 89.5655 101.569 95.8086 95.729 99.2321L94.1178 100.138L92.5067 99.2321C86.6667 95.8086 83.0417 89.4652 83.0417 82.7186V75.8717L94.1178 72.1459L105.194 75.8717V82.7186Z" fill="black"/>
<path d="M93.6143 98.2251C99.9578 94.6001 103.18 88.7601 103.18 81.0066V79.1944H101.166V80.9063C101.166 87.9548 98.2463 93.0897 92.6074 96.4128L93.6143 98.2251Z" fill="black"/>
<path d="M102.173 53.0144H80.0208V51.0005C80.0208 49.2886 78.7119 47.9798 77 47.9798H54.8477C53.1357 47.9798 51.8269 49.2886 51.8269 51.0005V55.0282H53.8408V51.0005C53.8408 50.3963 54.2434 49.9936 54.8477 49.9936H77C77.6042 49.9936 78.0069 50.3963 78.0069 51.0005V55.0282H102.173C103.885 55.0282 105.194 56.337 105.194 58.049V71.139H107.208V58.049C107.208 55.2298 104.992 53.0144 102.173 53.0144Z" fill="black"/>
<path d="M51.8269 96.3121H82.0345V94.2982H51.8269C50.1149 94.2982 48.8061 92.9894 48.8061 91.2774V78.9928L52.8338 81.4098L59.8822 77.3821L62.8022 79.3959L70.153 76.2744H76.9999V74.2605H70.2533L67.2326 72.2467H63.2049L59.8822 69.9305L52.8338 73.9582L48.8061 71.5417V63.0836C48.8061 61.3716 50.1149 60.0628 51.8269 60.0628H94.1176C95.8296 60.0628 97.1384 61.3716 97.1384 63.0836V68.1182H99.1522V63.0836C99.1522 60.2644 96.9368 58.049 94.1176 58.049H51.8269C49.0077 58.049 46.7922 60.2644 46.7922 63.0836V72.7502L52.8338 76.3752L59.8822 72.3475L62.6011 74.1598H66.6288L67.8368 74.9651L63.0038 77.0797L59.8822 75.0659L52.8338 79.0936L46.7922 75.4686V91.2774C46.7922 94.0966 49.0077 96.3121 51.8269 96.3121Z" fill="black"/>
<path d="M101.166 60.0628H103.18V70.1321H101.166V60.0628Z" fill="black"/>
</g>
</g>
<defs>
<linearGradient id="paint0_linear" x1="136.874" y1="131.809" x2="15.613" y2="9.62232" gradientUnits="userSpaceOnUse">
<stop stop-color="#87B827"/>
<stop offset="1" stop-color="#3A7D11"/>
</linearGradient>
<clipPath id="clip0">
<rect width="154" height="154" fill="white"/>
</clipPath>
<clipPath id="clip1">
<rect width="60.4154" height="60.4154" fill="white" transform="translate(46.7922 44.959)"/>
</clipPath>
</defs>
</svg>
