<svg width="158" height="158" viewBox="0 0 158 158" fill="none" xmlns="http://www.w3.org/2000/svg">
<g opacity="0.7" clip-path="url(#clip0)">
<g opacity="0.5">
<path fill-rule="evenodd" clip-rule="evenodd" d="M157.502 70.228C157.252 68.007 154.662 66.3381 152.423 66.3381C145.183 66.3381 138.759 62.0872 136.065 55.513C133.312 48.7794 135.087 40.9266 140.483 35.9773C142.181 34.4247 142.387 31.8258 140.963 30.0204C137.258 25.315 133.046 21.0647 128.448 17.3811C126.647 15.9361 124.005 16.1372 122.444 17.8661C117.735 23.0811 109.277 25.0193 102.741 22.2922C95.9388 19.431 91.6497 12.5388 92.0695 5.14038C92.2076 2.81651 90.5092 0.795988 88.1924 0.526154C82.2913 -0.156368 76.3385 -0.177531 70.4198 0.479124C68.1294 0.73191 66.4311 2.70482 66.5081 4.99929C66.7656 12.3248 62.4247 19.0965 55.6906 21.8548C49.2328 24.4926 40.8339 22.5708 36.1344 17.4023C34.5812 15.6998 31.9822 15.4905 30.1728 16.9008C25.438 20.6156 21.1318 24.8694 17.3924 29.536C15.9339 31.3502 16.1484 33.9797 17.8639 35.5405C23.3622 40.5198 25.1376 48.4408 22.2811 55.2519C19.554 61.7456 12.8111 65.9307 5.0917 65.9307C2.58677 65.8501 0.802571 67.5315 0.528622 69.8089C-0.166245 75.7441 -0.174475 81.7915 0.494525 87.7749C0.742608 90.0053 3.41097 91.6596 5.67487 91.6596C12.5542 91.4838 19.1589 95.743 21.9296 102.485C24.6914 109.219 22.916 117.067 17.5123 122.02C15.8222 123.573 15.6076 126.168 17.032 127.973C20.7027 132.649 24.9148 136.903 29.5296 140.617C31.3397 142.076 33.9734 141.87 35.5424 140.141C40.2689 134.913 48.7267 132.978 55.2368 135.711C62.0555 138.563 66.3447 145.455 65.9249 152.857C65.7879 155.182 67.4945 157.206 69.8019 157.472C72.8207 157.824 75.8576 158 78.9028 158C81.7934 158 84.6846 157.841 87.5751 157.52C89.8661 157.267 91.5633 155.294 91.4863 152.995C91.2211 145.674 95.5696 138.902 102.295 136.149C108.796 133.493 117.16 135.437 121.86 140.6C123.422 142.299 126.003 142.504 127.822 141.099C132.548 137.393 136.845 133.142 140.603 128.463C142.061 126.653 141.855 124.019 140.131 122.459C134.632 117.48 132.848 109.557 135.704 102.751C138.39 96.3438 144.882 92.0417 151.866 92.0417L152.843 92.067C155.108 92.251 157.192 90.5062 157.466 88.1941C158.162 82.2536 158.171 76.2114 157.502 70.228Z" fill="url(#paint0_linear)" fill-opacity="0.23"/>
</g>
</g>
<g opacity="0.7" clip-path="url(#clip1)">
<path d="M90.4694 69.9033C90.4694 81.2717 81.2529 90.4882 69.8845 90.4882C58.5155 90.4882 49.2996 81.2717 49.2996 69.9033C49.2996 58.5343 58.5155 49.3184 69.8845 49.3184C81.2529 49.3184 90.4694 58.5343 90.4694 69.9033Z" fill="#239172"/>
<path d="M86.3524 69.9033C86.3524 78.9981 78.9793 86.3712 69.8844 86.3712C60.7891 86.3712 53.4165 78.9981 53.4165 69.9033C53.4165 60.8084 60.7891 53.4353 69.8844 53.4353C78.9793 53.4353 86.3524 60.8084 86.3524 69.9033Z" fill="#2AB793"/>
<path d="M58.5627 69.9033C64.3261 76.1818 74.0014 76.5934 80.2794 70.8295C80.5885 70.5209 80.8971 70.2119 81.2062 69.9033C75.4423 63.6248 65.7675 63.2132 59.489 68.9771C59.1799 69.2857 58.8713 69.5942 58.5627 69.9033Z" fill="#E9E9E9"/>
<path d="M91.4985 58.5816H100.762V60.6401H91.4985V58.5816Z" fill="#C4C4C4"/>
<path d="M93.5571 63.7278H100.762V65.7863H93.5571V63.7278Z" fill="#C4C4C4"/>
<path d="M93.5571 68.8741H100.762V70.9325H93.5571V68.8741Z" fill="#C4C4C4"/>
<path d="M93.5571 74.0203H100.762V76.0788H93.5571V74.0203Z" fill="#C4C4C4"/>
<path d="M93.5571 79.1665H100.762V81.225H93.5571V79.1665Z" fill="#C4C4C4"/>
<path d="M94.5867 84.3127H100.762V86.3712H94.5867V84.3127Z" fill="#C4C4C4"/>
<path d="M57.5337 93.5759H85.3233V95.6344H57.5337V93.5759Z" fill="#C4C4C4"/>
<path d="M57.5337 97.693H89.4403V99.7515H57.5337V97.693Z" fill="#C4C4C4"/>
<path d="M62.6799 78.1373H77.0894V80.1958H62.6799V78.1373Z" fill="#239172"/>
<path d="M62.6799 59.6108H77.0894V61.6693H62.6799V59.6108Z" fill="#239172"/>
<path d="M86.3524 82.2542L94.5864 91.5175H95.8211C96.3358 91.5175 96.8504 91.723 97.262 92.1351L107.967 102.839C108.687 103.559 108.996 104.486 108.996 105.412C108.996 107.471 107.349 109.015 105.393 109.015C104.467 109.015 103.54 108.603 102.82 107.985L92.1158 97.2813C91.7042 96.8692 91.4986 96.3546 91.4986 95.84V94.6052L83.2646 85.342" fill="#3F3F3F"/>
<path d="M72.9724 69.9033C72.9724 71.6085 71.5898 72.991 69.8846 72.991C68.1789 72.991 66.7969 71.6085 66.7969 69.9033C66.7969 68.1981 68.1789 66.8156 69.8846 66.8156C71.5898 66.8156 72.9724 68.1981 72.9724 69.9033Z" fill="#4A4A56"/>
<path d="M108.996 105.412C108.996 104.486 108.584 103.559 107.966 102.839L97.2619 92.1351C96.8503 91.723 96.3357 91.5174 95.8211 91.5174H94.5863L91.4985 94.6052V95.84C91.4985 96.3546 91.7041 96.8692 92.1157 97.2813L102.82 107.985C104.261 109.426 106.525 109.426 107.966 107.985C108.584 107.265 108.996 106.338 108.996 105.412Z" fill="#2B2B2B"/>
<path d="M82.0293 69.2857C75.8538 62.4925 65.4583 62.0809 58.7682 68.1534C58.4597 68.4625 58.0481 68.771 57.739 69.1826L57.3274 69.9033L57.842 70.521L57.945 70.6235C64.0175 77.3136 74.413 77.7257 81.1031 71.6527C81.4116 71.3441 81.8232 71.0356 82.1323 70.6235L82.6469 69.9033L82.0293 69.2857ZM67.8259 69.9033C67.8259 68.771 68.7521 67.8448 69.8844 67.8448C71.0162 67.8448 71.9429 68.771 71.9429 69.9033C71.9429 71.0356 71.0162 71.9618 69.8844 71.9618C68.7521 71.9618 67.8259 71.0356 67.8259 69.9033ZM68.5461 65.9919C66.3846 66.7125 65.2528 68.9771 65.8699 71.1381C66.282 72.3734 67.2083 73.4026 68.5461 73.8142C65.3553 73.5057 62.2676 72.1673 59.9005 69.9033C62.3706 67.6388 65.3553 66.3009 68.5461 65.9919ZM71.2222 73.8142C73.3837 73.0941 74.516 70.8295 73.8983 68.668C73.4867 67.4332 72.56 66.404 71.2222 65.9919C74.413 66.3009 77.5007 67.6388 79.8678 69.9033C77.3977 72.1673 74.413 73.5057 71.2222 73.8142Z" fill="black"/>
<path d="M69.8846 52.4061C60.2093 52.4061 52.3875 60.2285 52.3875 69.9033C52.3875 79.5781 60.2093 87.4004 69.8846 87.4004C79.5594 87.4004 87.3818 79.5781 87.3818 69.9033C87.3818 60.2285 79.5594 52.4061 69.8846 52.4061ZM69.8846 85.342C61.3416 85.342 54.4459 78.4458 54.4459 69.9033C54.4459 61.3602 61.3416 54.4646 69.8846 54.4646C78.4272 54.4646 85.3233 61.3602 85.3233 69.9033C85.3233 78.4458 78.4272 85.342 69.8846 85.342Z" fill="black"/>
<path d="M104.879 92.5467V58.5816C104.879 55.6994 102.614 53.4353 99.7326 53.4353H88.4109V55.4938H99.7326C101.482 55.4938 102.82 56.8316 102.82 58.5816V92.5467H104.879Z" fill="black"/>
<path d="M53.4165 89.459V99.7514C53.4165 102.633 55.6805 104.898 58.5627 104.898H94.5863V102.839H58.5627C56.8128 102.839 55.475 101.501 55.475 99.7514V89.459H53.4165Z" fill="black"/>
<path d="M91.4985 58.5816H100.762V60.6401H91.4985V58.5816Z" fill="black"/>
<path d="M93.5571 63.7278H100.762V65.7863H93.5571V63.7278Z" fill="black"/>
<path d="M93.5571 68.8741H100.762V70.9325H93.5571V68.8741Z" fill="black"/>
<path d="M93.5571 74.0203H100.762V76.0788H93.5571V74.0203Z" fill="black"/>
<path d="M93.5571 79.1665H100.762V81.225H93.5571V79.1665Z" fill="black"/>
<path d="M94.5864 84.3127H100.762V86.3712H94.5864V84.3127Z" fill="black"/>
<path d="M57.5337 93.5759H85.3233V95.6344H57.5337V93.5759Z" fill="black"/>
<path d="M57.5337 97.6929H89.4403V99.7514H57.5337V97.6929Z" fill="black"/>
<path d="M62.6799 78.1373H77.0894V80.1958H62.6799V78.1373Z" fill="black"/>
<path d="M62.6799 59.6108H77.0894V61.6693H62.6799V59.6108Z" fill="black"/>
<path d="M97.9827 91.4144C97.3651 90.7968 96.6449 90.4882 95.8212 90.4882H95.101L87.6903 82.1512C94.4834 72.2703 92.1158 58.7871 82.2355 51.8915C72.3546 44.9953 58.7684 47.5684 51.9752 57.3463C45.1826 67.1241 47.5497 80.7104 57.4305 87.606C65.2529 93.0613 75.7509 92.7522 83.2647 86.7828L90.4694 94.9138V95.7375C90.4694 96.5606 90.778 97.3838 91.3956 97.8985L102.1 108.603C103.952 110.455 106.834 110.455 108.687 108.603C110.54 106.75 110.54 103.868 108.687 102.015L97.9827 91.4144ZM50.3288 69.9033C50.3288 59.0962 59.0774 50.3476 69.8845 50.3476C80.6916 50.3476 89.4402 59.0962 89.4402 69.9033C89.4402 80.7104 80.6916 89.459 69.8845 89.459C59.0774 89.459 50.3288 80.7104 50.3288 69.9033ZM84.8086 85.5475C85.3232 85.0329 85.9403 84.4157 86.3524 83.9011L93.1451 91.5174L91.4987 93.0613L84.8086 85.5475ZM105.393 107.985C104.673 107.985 104.055 107.676 103.541 107.265L92.8365 96.5606C92.6304 96.3546 92.5279 96.1491 92.5279 95.84V95.0168L94.998 92.5467H95.8212C96.1303 92.5467 96.3358 92.6497 96.5419 92.8553L107.246 103.559C108.275 104.589 108.275 106.235 107.246 107.265C106.731 107.676 106.011 107.985 105.393 107.985Z" fill="black"/>
</g>
<defs>
<linearGradient id="paint0_linear" x1="140.429" y1="135.232" x2="16.0185" y2="9.87221" gradientUnits="userSpaceOnUse">
<stop stop-color="#87B827"/>
<stop offset="1" stop-color="#3A7D11"/>
</linearGradient>
<clipPath id="clip0">
<rect width="158" height="158" fill="white"/>
</clipPath>
<clipPath id="clip1">
<rect width="61.9846" height="61.9846" fill="white" transform="translate(48.0078 48.0077)"/>
</clipPath>
</defs>
</svg>
